<svg id="Capa_1" data-name="Capa 1" xmlns="http://www.w3.org/2000/svg" viewBox="0 0 261.81 123.57"><defs><style>.cls-1{fill:#9fcace;}.cls-2{fill:#1d1d1b;}</style></defs><title>logo_rooms</title><ellipse class="cls-1" cx="64.56" cy="65.31" rx="22.42" ry="21.38"/><ellipse class="cls-1" cx="195.91" cy="65.31" rx="22.42" ry="21.38"/><path class="cls-2" d="M66.44,46.05c-16.51,24.34-30.92,60-16.56,88.21,11.52,22.67,37.27,37.35,62.69,33.67,15.88-2.3,29.81-11.39,40.61-23a130.38,130.38,0,0,0,18.73-26.44c5.74-10.44,10-21.58,16.54-31.59,9.54-14.54,23.07-27.34,40.21-32a52.34,52.34,0,0,1,40.45,5.72c14.62,8.68,24.61,23.55,29.05,39.79,5.76,21.08,2.24,43.24-5.81,63.22-1.2,3,3.63,4.28,4.82,1.33,12.71-31.54,13.2-70.27-10.89-96.69-19.49-21.37-50.62-26.27-75.36-11-16.06,9.92-27.53,25.93-35.5,42.75-9.41,19.88-20.28,40-38.86,52.85-23.94,16.53-54.83,12.64-74.12-9.09-12-13.48-15.57-30.34-12-47.94C53.73,79.2,61.21,62.65,70.75,48.57c1.81-2.67-2.52-5.17-4.31-2.52Z" transform="translate(-44 -44.92)"/></svg>